# AST/ASF file generated using VICON BodyLanguage
# -----------------------------------------------
:version 1.10
:name VICON
:units
  mass 1.0
  length 0.45
  angle deg
:documentation
   .ast/.asf automatically generated from VICON data using
   VICON BodyBuilder and BodyLanguage model FoxedUp or BRILLIANT.MOD
:root
   order TX TY TZ RX RY RZ
   axis XYZ
   position 0 0 0  
   orientation 0 0 0 
:bonedata
  begin
     id 1 
     name lhipjoint
     direction 0.630082 -0.636569 0.44472 
     length 2.82754 
     axis 0 0 0  XYZ
  end
  begin
     id 2 
     name lfemur
     direction 0.34202 -0.939693 0  
     length 7.26371  
     axis 0 0 20  XYZ
    dof rx ry rz
    limits (-160.0 20.0)
           (-70.0 70.0)
           (-60.0 70.0)
  end
  begin
     id 3 
     name ltibia
     direction 0.34202 -0.939693 0   
     length 7.88616   
     axis 0 0 20   XYZ
    dof rx
    limits (-10.0 170.0)
  end
  begin
     id 4 
     name lfoot
     direction 0.0603448 -0.165796 0.984312   
     length 1.77861   
     axis -90 7.62852e-016 20   XYZ
    dof rx rz
    limits (-45.0 90.0)
           (-70.0 20.0)
  end
  begin
     id 5 
     name ltoes
     direction 1.53577e-011 -4.21876e-011 1   
     length 0.902235   
     axis -90 7.62852e-016 20   XYZ
    dof rx
    limits (-90.0 20.0)
  end
  begin
     id 6 
     name rhipjoint
     direction -0.656778 -0.61817 0.431866   
     length 2.9117  
     axis 0 0 0  XYZ 
  end
  begin
     id 7 
     name rfemur
     direction -0.34202 -0.939693 0   
     length 6.81603   
     axis 0 0 -20   XYZ
    dof rx ry rz
    limits (-160.0 20.0)
           (-70.0 70.0)
           (-70.0 60.0)
  end
  begin
     id 8 
     name rtibia
     direction -0.34202 -0.939693 0   
     length 8.05997   
     axis 0 0 -20   XYZ
    dof rx
    limits (-10.0 170.0)
 end
 begin
     id 9 
     name rfoot
     direction -0.0862404 -0.236944 0.967688   
     length 1.84899  
     axis -90 -7.62852e-016 -20   XYZ
    dof rx rz
    limits (-45.0 90.0)
           (-20.0 70.0)
  end
  begin
     id 10 
     name rtoes
     direction -1.53561e-011 -4.21798e-011 1   
     length 0.931579   
     axis -90 -7.62852e-016 -20   XYZ
    dof rx
    limits (-90.0 20.0)
  end
  begin
     id 11 
     name lowerback
     direction -0.0110203 0.991769 -0.127564   
     length 2.05686   
     axis 0 0 0   XYZ
    dof rx ry rz
    limits (-20.0 45.0)
           (-30.0 30.0)
           (-30.0 30.0)
  end
  begin
     id 12 
     name upperback
     direction 0.0109719 0.99993 -0.00432479   
     length 2.06234   
     axis 0 0 0   XYZ
    dof rx ry rz
    limits (-20.0 45.0)
           (-30.0 30.0)
           (-30.0 30.0)
  end
  begin
     id 13 
     name thorax
     direction 0.0173308 0.998351 0.0547306   
     length 2.09856   
     axis 0 0 0   XYZ
    dof rx ry rz
    limits (-20.0 45.0)
           (-30.0 30.0)
           (-30.0 30.0)
  end
  begin
     id 14 
     name lowerneck
     direction -0.0311736 0.989033 0.144366   
     length 1.98151   
     axis 0 0 0   XYZ
    dof rx ry rz
    limits (-20.0 45.0)
           (-30.0 30.0)
           (-30.0 30.0)
  end
  begin
     id 15 
     name upperneck
     direction 0.0421057 0.975772 -0.214698   
     length 2.01457   
     axis 0 0 0   XYZ
    dof rx ry rz
    limits (-20.0 45.0)
           (-30.0 30.0)
           (-30.0 30.0)
  end
  begin
     id 16
     name head
     direction 0.0136911 0.995958 -0.0887718  
     length 2.03562  
     axis 0 0 0   XYZ
    dof rx ry rz
    limits (-20.0 45.0)
           (-30.0 30.0)
           (-30.0 30.0)
  end
  begin
     id 17 
     name lclavicle
     direction 0.915335 0.396201 0.0720134  
     length 4.16217  
     axis 0 0 0   XYZ
    dof ry rz
    limits (-20.0 10.0)
           (0.0 20.0)
  end
  begin
     id 18 
     name lhumerus
     direction 1 -4.48965e-011 6.383e-018   
     length 4.93042   
     axis -180 -30 -90   XYZ
    dof rx ry rz
    limits (-60.0 90.0)
           (-90.0 90.0)
           (-90.0 90.0)
  end
  begin
     id 19
     name lradius
     direction 1 -4.48972e-011 8.8689e-027   
     length 3.68177   
     axis -180 -30 -90   XYZ
    dof rx
    limits (-10.0 170.0)
  end
  begin
     id 20
     name lwrist
     direction 1 -4.48953e-011 1.17971e-026   
     length 1.84089   
     axis -7.69454e-015 90 90   XYZ
    dof ry
    limits (-180.0 0.0)
 end
  begin
     id 21 
     name lhand
     direction 1 -4.49027e-011 2.35802e-026   
     length 0.721479   
     axis -1.50533e-014 90 90   XYZ
    dof rx rz
    limits (-90.0 90.0)
           (-45.0 45.0)
  end
  begin
     id 22 
     name lfingers
     direction 1 -4.48915e-011 4.72027e-026   
     length 0.581675   
     axis -3.01059e-014 90 90   XYZ
    dof rx
    limits (0.0 90.0)
  end
  begin
     id 23
     name lthumb
     direction 0.707107 -6.34948e-011 0.707107   
     length 0.835172   
     axis -90 45 -5.12164e-014   XYZ
    dof rx rz
    limits (-45.0 45.0)
           (-45.0 45.0)
  end
  begin
     id 24 
     name rclavicle
     direction -0.882781 0.469197 0.0234974   
     length 3.95647  
     axis 0 0 0   XYZ 
    dof ry rz
    limits (-10.0 20.0)
           (-20.0 0.0)
  end
  begin
     id 25 
     name rhumerus
     direction -1 -4.48965e-011 -1.54906e-018  
     length 5.07905   
     axis -180 30 90   XYZ
    dof rx ry rz
    limits (-90.0 60.0)
           (-90.0 90.0)
           (-90.0 90.0)
  end
  begin
     id 26 
     name rradius
     direction -1 -4.48972e-011 5.47489e-027   
     length 3.54394   
     axis -180 30 90   XYZ
    dof rx
    limits (-10.0 170.0)
  end
  begin
     id 27 
     name rwrist
     direction -1 -4.48955e-011 1.17969e-026   
     length 1.77197   
     axis -7.69454e-015 -90 -90   XYZ
    dof ry
    limits (-180.0 0.0)
  end
  begin
     id 28
     name rhand
     direction -1 -4.48982e-011 2.35888e-026   
     length 0.681156   
     axis -1.50533e-014 -90 -90   XYZ
    dof rx rz
    limits (-90.0 90.0)
           (-45.0 45.0)
  end
  begin
     id 29
     name rfingers
     direction -1 -4.48955e-011 4.71877e-026   
     length 0.549165   
     axis -3.01059e-014 -90 -90   XYZ
    dof rx
    limits (0.0 90.0)
  end
  begin
     id 30
     name rthumb
     direction -0.707107 -6.3491e-011 0.707107   
     length 0.788495   
     axis -90 -45 5.12164e-014   XYZ
    dof rx rz
    limits (-45.0 45.0)
           (-45.0 45.0)
  end
:hierarchy
  begin
    root lhipjoint rhipjoint lowerback
    lhipjoint lfemur
    lfemur ltibia
    ltibia lfoot
    lfoot ltoes
    rhipjoint rfemur
    rfemur rtibia
    rtibia rfoot
    rfoot rtoes
    lowerback upperback
    upperback thorax
    thorax lowerneck lclavicle rclavicle
    lowerneck upperneck
    upperneck head
    lclavicle lhumerus
    lhumerus lradius
    lradius lwrist
    lwrist lhand lthumb
    lhand lfingers
    rclavicle rhumerus
    rhumerus rradius
    rradius rwrist
    rwrist rhand rthumb
    rhand rfingers
  end

#!OML:ASF H:\Bending\Project 1\Capture day 1\Session 1\Subject.ASF
:FULLY-SPECIFIED
:DEGREES
244
root -10.324 18.1295 -16.7132 232.342 88.1576 222.876
lowerback 10.025 -0.516497 -0.214242
upperback -0.28702 -0.576106 1.86682
thorax -5.90993 -0.237391 2.16138
lowerneck -27.4503 -3.94195 -6.11984
upperneck 27.4993 -3.86418 3.23481
head 14.1983 -1.77583 1.58038
rclavicle 3.97569e-015 4.37326e-015
rhumerus 39.3539 5.42883 -85.2356
rradius 27.6823
rwrist 16.2312
rhand -12.5902 -37.7251
rfingers 7.12502
rthumb 13.4882 -67.2684
lclavicle 3.97569e-015 4.37326e-015
lhumerus 41.7479 -14.2443 80.4677
lradius 28.1623
lwrist 46.0431
lhand -29.242 23.4228
lfingers 7.12502
lthumb -2.58546 53.3869
rfemur -0.505983 -6.43293 15.3396
rtibia 1.59028e-015
rfoot -7.62266 -17.1047
rtoes -1.01245
lfemur -18.3398 -5.58642 -13.5821
ltibia 27.3889
lfoot -19.9898 10.8295
ltoes -31.6379
245
root -10.3181 18.1277 -16.7085 230.987 88.1519 221.601
lowerback 9.93263 -0.495889 -0.202804
upperback -0.251649 -0.549568 1.84993
thorax -5.82176 -0.225801 2.13124
lowerneck -27.4117 -3.98535 -6.13218
upperneck 27.5635 -3.91163 3.20274
head 14.2207 -1.80184 1.56086
rclavicle -1.31198e-014 -1.23246e-014
rhumerus 39.1602 5.54893 -84.9278
rradius 27.9735
rwrist 15.975
rhand -12.6584 -38.0281
rfingers 7.12502
rthumb 13.4225 -67.5757
lclavicle -1.31198e-014 -1.23246e-014
lhumerus 41.4166 -14.7289 79.918
lradius 28.9375
lwrist 46.9868
lhand -29.2229 23.6607
lfingers 7.12502
lthumb -2.56694 53.625
rfemur -0.393349 -6.46129 15.3189
rtibia -3.49861e-014
rfoot -7.5747 -17.1307
rtoes -1.37857
lfemur -18.2175 -5.62167 -13.6034
ltibia 27.3654
lfoot -19.99 10.8461
ltoes -31.8225
246
root -10.313 18.1267 -16.7036 230.265 88.1673 220.953
lowerback 9.86087 -0.472432 -0.203421
upperback -0.238185 -0.520176 1.83678
thorax -5.76828 -0.212086 2.11216
lowerneck -27.3556 -4.01258 -6.10809
upperneck 27.6461 -3.93408 3.11636
head 14.2437 -1.82121 1.51855
rclavicle 8.24956e-015 6.75868e-015
rhumerus 38.9229 5.8392 -84.4066
rradius 28.3679
rwrist 15.3737
rhand -12.8413 -38.4743
rfingers 7.12502
rthumb 13.2461 -68.0334
lclavicle 8.24956e-015 6.75868e-015
lhumerus 40.9401 -15.3045 79.1748
lradius 30.0507
lwrist 48.3323
lhand -29.1143 23.9312
lfingers 7.12502
lthumb -2.46213 53.8967
rfemur -0.293046 -6.46062 15.2982
rtibia 7.95139e-015
rfoot -7.54322 -17.1554
rtoes -1.61061
lfemur -18.0878 -5.64145 -13.6229
ltibia 27.3222
lfoot -19.9846 10.8651
ltoes -31.9735
247
root -10.3087 18.1262 -16.6983 230.338 88.2018 221.09
lowerback 9.82465 -0.449876 -0.206691
upperback -0.253505 -0.491828 1.82441
thorax -5.76509 -0.198384 2.09655
lowerneck -27.2887 -4.01175 -6.03846
upperneck 27.7511 -3.92092 2.98474
head 14.2699 -1.82696 1.45774
rclavicle 1.25234e-014 9.54166e-015
rhumerus 38.6127 6.27612 -83.7239
rradius 28.9379
rwrist 14.3893
rhand -13.1272 -39.0119
rfingers 7.12502
rthumb 12.9706 -68.5887
lclavicle 1.25234e-014 9.54166e-015
lhumerus 40.2879 -15.9568 78.2366
lradius 31.5582
lwrist 50.0069
lhand -29.0533 24.3049
lfingers 7.12502
lthumb -2.40314 54.2712
rfemur -0.211518 -6.42904 15.2842
rtibia 2.06736e-014
rfoot -7.53854 -17.1738
rtoes -1.64337
lfemur -17.9585 -5.65113 -13.633
ltibia 27.264
lfoot -19.9676 10.8909
ltoes -32.1008
248
root -10.3049 18.126 -16.6927 231.28 88.2508 222.081
lowerback 9.81814 -0.429584 -0.207494
upperback -0.294624 -0.465779 1.81316
thorax -5.80577 -0.185513 2.08188
lowerneck -27.2157 -3.97954 -5.93575
upperneck 27.8691 -3.87125 2.83657
head 14.297 -1.81581 1.39225
rclavicle -3.8763e-015 3.81667e-014
rhumerus 38.1963 6.78755 -82.9629
rradius 29.7658
rwrist 13.0617
rhand -13.4602 -39.5329
rfingers 7.12502
rthumb 12.6496 -69.1299
lclavicle -3.8763e-015 3.81667e-014
lhumerus 39.4494 -16.6517 77.1621
lradius 33.461
lwrist 51.7649
lhand -29.1989 24.8219
lfingers 7.12502
lthumb -2.54377 54.7865
rfemur -0.156103 -6.3694 15.2807
rtibia 0
rfoot -7.55766 -17.1832
rtoes -1.49135
lfemur -17.8382 -5.6659 -13.6284
ltibia 27.1968
lfoot -19.9424 10.9306
ltoes -32.1977
249
root -10.3009 18.126 -16.6873 233.086 88.3116 223.914
lowerback 9.85039 -0.410589 -0.195229
upperback -0.370889 -0.439855 1.79607
thorax -5.90552 -0.172748 2.05472
lowerneck -27.1312 -3.92276 -5.82386
upperneck 27.9967 -3.79844 2.7126
head 14.3254 -1.78998 1.34
rclavicle -2.68359e-015 -3.97569e-015
rhumerus 37.6041 7.27801 -82.2197
rradius 30.9367
rwrist 11.5069
rhand -13.7563 -39.9168
rfingers 7.12502
rthumb 12.3641 -69.5312
lclavicle -2.68359e-015 -3.97569e-015
lhumerus 38.4034 -17.362 76.0431
lradius 35.711
lwrist 53.2537
lhand -29.6396 25.4597
lfingers 7.12502
lthumb -2.96943 55.4188
rfemur -0.133333 -6.28567 15.2863
rtibia 2.54444e-014
rfoot -7.58342 -17.1852
rtoes -1.26067
lfemur -17.7333 -5.6997 -13.6105
ltibia 27.124
lfoot -19.9201 10.9893
ltoes -32.2468
250
root -10.2956 18.1262 -16.6822 235.708 88.3841 226.537
lowerback 9.89147 -0.388063 -0.184968
upperback -0.470083 -0.409324 1.77879
thorax -6.03466 -0.157478 2.02816
lowerneck -27.0327 -3.85692 -5.73477
upperneck 28.1179 -3.72002 2.63893
head 14.3498 -1.75672 1.31331
rclavicle 3.47873e-015 -1.31198e-014
rhumerus 36.7864 7.67936 -81.5318
rradius 32.5281
rwrist 9.87804
rhand -13.93 -40.0883
rfingers 7.12502
rthumb 12.1966 -69.7127
lclavicle 3.47873e-015 -1.31198e-014
lhumerus 37.1558 -18.0528 74.9872
lradius 38.2297
lwrist 54.1231
lhand -30.3311 26.1387
lfingers 7.12502
lthumb -3.63721 56.0874
rfemur -0.144977 -6.18116 15.2954
rtibia -2.54444e-014
rfoot -7.59273 -17.1859
rtoes -1.11163
lfemur -17.6434 -5.75901 -13.5858
ltibia 27.0453
lfoot -19.9175 11.0664
ltoes -32.2146
251
root -10.288 18.1267 -16.6775 239.046 88.4676 229.851
lowerback 9.90523 -0.35742 -0.195907
upperback -0.575092 -0.37038 1.76694
thorax -6.15472 -0.137411 2.01765
lowerneck -26.9188 -3.79943 -5.68832
upperneck 28.222 -3.65447 2.6205
head 14.3668 -1.72551 1.31371
rclavicle -5.96354e-015 1.07344e-014
rhumerus 35.6989 7.9621 -80.89
rradius 34.6004
rwrist 8.33185
rhand -14.1131 -40.0474
rfingers 7.12502
rthumb 12.02 -69.6822
lclavicle -5.96354e-015 1.07344e-014
lhumerus 35.7129 -18.7003 74.0751
lradius 40.9394
lwrist 54.1448
lhand -31.1153 26.7503
lfingers 7.12502
lthumb -4.3945 56.6847
rfemur -0.183805 -6.06068 15.3015
rtibia 6.36111e-015
rfoot -7.57061 -17.1926
rtoes -1.18193
lfemur -17.5622 -5.83934 -13.5631
ltibia 26.9588
lfoot -19.9479 11.1542
ltoes -32.0769
252
root -10.2772 18.1275 -16.6727 242.86 88.5559 233.625
lowerback 9.88424 -0.318047 -0.229248
upperback -0.681465 -0.322733 1.75633
thorax -6.25684 -0.112454 2.01926
lowerneck -26.7894 -3.76291 -5.67984
upperneck 28.3198 -3.61755 2.64394
head 14.3813 -1.70451 1.33188
rclavicle -1.09332e-015 -2.50469e-014
rhumerus 34.2856 8.12592 -80.2745
rradius 37.1859
rwrist 6.99971
rhand -13.9703 -39.8736
rfingers 7.12502
rthumb 12.1577 -69.5004
lclavicle -1.09332e-015 -2.50469e-014
lhumerus 34.057 -19.3059 73.3401
lradius 43.7857
lwrist 53.2814
lhand -31.8075 27.1753
lfingers 7.12502
lthumb -5.0629 57.0948
rfemur -0.231335 -5.93464 15.3017
rtibia -3.18055e-015
rfoot -7.52126 -17.2098
rtoes -1.51422
lfemur -17.4793 -5.93004 -13.5482
ltibia 26.8647
lfoot -20.0137 11.2418
ltoes -31.8446
253
root -10.2628 18.1283 -16.6675 246.615 88.6364 237.337
lowerback 9.83016 -0.273124 -0.27527
upperback -0.784343 -0.26984 1.74084
thorax -6.33674 -0.084736 2.02161
lowerneck -26.6491 -3.75242 -5.68794
upperneck 28.429 -3.61683 2.68348
head 14.4012 -1.69824 1.35237
rclavicle -7.50412e-015 4.37326e-015
rhumerus 32.5047 8.18599 -79.6685
rradius 40.2799
rwrist 5.96046
rhand -13.7697 -39.6525
rfingers 7.12502
rthumb 12.3511 -69.2676
lclavicle -7.50412e-015 4.37326e-015
lhumerus 32.1674 -19.8847 72.7793
lradius 46.7381
lwrist 51.6803
lhand -32.294 27.3016
lfingers 7.12502
lthumb -5.53263 57.2094
rfemur -0.260704 -5.82055 15.2983
rtibia 4.77083e-015
rfoot -7.47115 -17.236
rtoes -2.01533
lfemur -17.3848 -6.02063 -13.5411
ltibia 26.7676
lfoot -20.1029 11.3195
ltoes -31.5763
254
root -10.2449 18.1289 -16.6615 249.449 88.6949 240.141
lowerback 9.75431 -0.227386 -0.317604
upperback -0.880221 -0.216227 1.71566
thorax -6.397 -0.0570979 2.01124
lowerneck -26.5061 -3.76673 -5.68973
upperneck 28.5684 -3.65211 2.71642
head 14.4355 -1.70723 1.36223
rclavicle 3.52843e-015 -1.98785e-014
rhumerus 30.3284 8.15951 -79.0715
rradius 43.8401
rwrist 5.22863
rhand -13.6212 -39.4623
rfingers 7.12502
rthumb 12.4943 -69.0688
lclavicle 3.52843e-015 -1.98785e-014
lhumerus 30.0247 -20.4624 72.3748
lradius 49.7809
lwrist 49.613
lhand -32.59 27.0609
lfingers 7.12502
lthumb -5.81837 56.961
rfemur -0.24457 -5.73925 15.2979
rtibia -2.22639e-014
rfoot -7.45779 -17.2646
rtoes -2.49755
lfemur -17.2728 -6.10492 -13.5372
ltibia 26.6768
lfoot -20.1927 11.3841
ltoes -31.375
